<mxfile host="app.diagrams.net" modified="2024-04-13T13:39:28.505Z" agent="Mozilla/5.0 (Macintosh; Intel Mac OS X 10_15_7) AppleWebKit/537.36 (KHTML, like Gecko) Chrome/123.0.0.0 Safari/537.36 Edg/123.0.0.0" version="24.2.5" etag="E6M4QtK12eeGefBHdiEd" type="github">
  <diagram name="Strona-1" id="l0YmvA27g55z5bew2UwF">
    <mxGraphModel>
      <root>
        <mxCell id="0" />
        <mxCell id="1" parent="0" />
      </root>
    </mxGraphModel>
  </diagram>
</mxfile>
